<svg id="visual" viewBox="0 0 900 600" width="900" height="600" xmlns="http://www.w3.org/2000/svg" xmlns:xlink="http://www.w3.org/1999/xlink" version="1.1"><path d="M0 372L21.5 379.8C43 387.7 86 403.3 128.8 401.8C171.7 400.3 214.3 381.7 257.2 386C300 390.3 343 417.7 385.8 424.7C428.7 431.7 471.3 418.3 514.2 408.8C557 399.3 600 393.7 642.8 386.5C685.7 379.3 728.3 370.7 771.2 378.8C814 387 857 412 878.5 424.5L900 437L900 601L878.5 601C857 601 814 601 771.2 601C728.3 601 685.7 601 642.8 601C600 601 557 601 514.2 601C471.3 601 428.7 601 385.8 601C343 601 300 601 257.2 601C214.3 601 171.7 601 128.8 601C86 601 43 601 21.5 601L0 601Z" fill="#20041d"></path><path d="M0 457L21.5 448C43 439 86 421 128.8 415.8C171.7 410.7 214.3 418.3 257.2 417.2C300 416 343 406 385.8 412.3C428.7 418.7 471.3 441.3 514.2 441.5C557 441.7 600 419.3 642.8 412C685.7 404.7 728.3 412.3 771.2 411.7C814 411 857 402 878.5 397.5L900 393L900 601L878.5 601C857 601 814 601 771.2 601C728.3 601 685.7 601 642.8 601C600 601 557 601 514.2 601C471.3 601 428.7 601 385.8 601C343 601 300 601 257.2 601C214.3 601 171.7 601 128.8 601C86 601 43 601 21.5 601L0 601Z" fill="#4a1546"></path><path d="M0 483L21.5 481.7C43 480.3 86 477.7 128.8 477C171.7 476.3 214.3 477.7 257.2 473.5C300 469.3 343 459.7 385.8 458.8C428.7 458 471.3 466 514.2 472.3C557 478.7 600 483.3 642.8 479.2C685.7 475 728.3 462 771.2 458.3C814 454.7 857 460.3 878.5 463.2L900 466L900 601L878.5 601C857 601 814 601 771.2 601C728.3 601 685.7 601 642.8 601C600 601 557 601 514.2 601C471.3 601 428.7 601 385.8 601C343 601 300 601 257.2 601C214.3 601 171.7 601 128.8 601C86 601 43 601 21.5 601L0 601Z" fill="#7b2373"></path><path d="M0 503L21.5 503.5C43 504 86 505 128.8 504.3C171.7 503.7 214.3 501.3 257.2 502.5C300 503.7 343 508.3 385.8 513.8C428.7 519.3 471.3 525.7 514.2 521.5C557 517.3 600 502.7 642.8 500.5C685.7 498.3 728.3 508.7 771.2 514.3C814 520 857 521 878.5 521.5L900 522L900 601L878.5 601C857 601 814 601 771.2 601C728.3 601 685.7 601 642.8 601C600 601 557 601 514.2 601C471.3 601 428.7 601 385.8 601C343 601 300 601 257.2 601C214.3 601 171.7 601 128.8 601C86 601 43 601 21.5 601L0 601Z" fill="#b031a3"></path><path d="M0 535L21.5 540C43 545 86 555 128.8 554.3C171.7 553.7 214.3 542.3 257.2 542C300 541.7 343 552.3 385.8 559C428.7 565.7 471.3 568.3 514.2 562.5C557 556.7 600 542.3 642.8 535.3C685.7 528.3 728.3 528.7 771.2 531C814 533.3 857 537.7 878.5 539.8L900 542L900 601L878.5 601C857 601 814 601 771.2 601C728.3 601 685.7 601 642.8 601C600 601 557 601 514.2 601C471.3 601 428.7 601 385.8 601C343 601 300 601 257.2 601C214.3 601 171.7 601 128.8 601C86 601 43 601 21.5 601L0 601Z" fill="#e93fd5"></path></svg>