<svg id="visual" viewBox="0 0 900 600" width="900" height="600" xmlns="http://www.w3.org/2000/svg" xmlns:xlink="http://www.w3.org/1999/xlink" version="1.1"><rect x="0" y="0" width="900" height="600" fill="#20041D"></rect><defs><linearGradient id="grad1_0" x1="33.3%" y1="0%" x2="100%" y2="100%"><stop offset="20%" stop-color="#1b0319" stop-opacity="1"></stop><stop offset="80%" stop-color="#1b0319" stop-opacity="1"></stop></linearGradient></defs><defs><linearGradient id="grad1_1" x1="33.3%" y1="0%" x2="100%" y2="100%"><stop offset="20%" stop-color="#1b0319" stop-opacity="1"></stop><stop offset="80%" stop-color="#20041d" stop-opacity="1"></stop></linearGradient></defs><defs><linearGradient id="grad2_0" x1="0%" y1="0%" x2="66.7%" y2="100%"><stop offset="20%" stop-color="#1b0319" stop-opacity="1"></stop><stop offset="80%" stop-color="#1b0319" stop-opacity="1"></stop></linearGradient></defs><defs><linearGradient id="grad2_1" x1="0%" y1="0%" x2="66.7%" y2="100%"><stop offset="20%" stop-color="#20041d" stop-opacity="1"></stop><stop offset="80%" stop-color="#1b0319" stop-opacity="1"></stop></linearGradient></defs><g transform="translate(900, 0)"><path d="M0 486.7C-31.5 453.4 -63.1 420 -91.9 402.6C-120.7 385.3 -146.9 384.1 -186.6 387.4C-226.2 390.7 -279.4 398.6 -297.4 372.9C-315.4 347.3 -298.4 288.2 -326.8 260.6C-355.2 233.1 -429.2 237.2 -438.5 211.2C-447.9 185.2 -392.7 129.2 -390 89C-387.2 48.8 -437 24.4 -486.7 0L0 0Z" fill="#1e041b"></path><path d="M0 243.4C-15.8 226.7 -31.5 210 -46 201.3C-60.4 192.7 -73.5 192.1 -93.3 193.7C-113.1 195.4 -139.7 199.3 -148.7 186.5C-157.7 173.6 -149.2 144.1 -163.4 130.3C-177.6 116.5 -214.6 118.6 -219.3 105.6C-224 92.6 -196.3 64.6 -195 44.5C-193.6 24.4 -218.5 12.2 -243.4 0L0 0Z" fill="#1b0319"></path></g><g transform="translate(0, 600)"><path d="M0 -486.7C33 -473.7 66 -460.7 104.6 -458.2C143.2 -455.7 187.4 -463.8 209.6 -435.2C231.7 -406.5 231.8 -341 242.5 -304.1C253.2 -267.2 274.6 -258.9 315.1 -251.3C355.6 -243.7 415.3 -236.8 438.5 -211.2C461.8 -185.6 448.5 -141.1 450.4 -102.8C452.4 -64.5 469.6 -32.2 486.7 0L0 0Z" fill="#1e041b"></path><path d="M0 -243.4C16.5 -236.9 33 -230.3 52.3 -229.1C71.6 -227.9 93.7 -231.9 104.8 -217.6C115.9 -203.2 115.9 -170.5 121.3 -152.1C126.6 -133.6 137.3 -129.4 157.5 -125.6C177.8 -121.8 207.7 -118.4 219.3 -105.6C230.9 -92.8 224.2 -70.6 225.2 -51.4C226.2 -32.2 234.8 -16.1 243.4 0L0 0Z" fill="#1b0319"></path></g></svg>