<svg id="visual" viewBox="0 0 900 600" width="900" height="600" xmlns="http://www.w3.org/2000/svg" xmlns:xlink="http://www.w3.org/1999/xlink" version="1.1"><path d="M0 163L13.7 155C27.3 147 54.7 131 82 128C109.3 125 136.7 135 163.8 149C191 163 218 181 245.2 176C272.3 171 299.7 143 327 141C354.3 139 381.7 163 409 177C436.3 191 463.7 195 491 182C518.3 169 545.7 139 573 140C600.3 141 627.7 173 654.8 183C682 193 709 181 736.2 168C763.3 155 790.7 141 818 142C845.3 143 872.7 159 886.3 167L900 175L900 0L886.3 0C872.7 0 845.3 0 818 0C790.7 0 763.3 0 736.2 0C709 0 682 0 654.8 0C627.7 0 600.3 0 573 0C545.7 0 518.3 0 491 0C463.7 0 436.3 0 409 0C381.7 0 354.3 0 327 0C299.7 0 272.3 0 245.2 0C218 0 191 0 163.8 0C136.7 0 109.3 0 82 0C54.7 0 27.3 0 13.7 0L0 0Z" fill="#ae2b9e"></path><path d="M0 325L13.7 305C27.3 285 54.7 245 82 231C109.3 217 136.7 229 163.8 241C191 253 218 265 245.2 258C272.3 251 299.7 225 327 219C354.3 213 381.7 227 409 247C436.3 267 463.7 293 491 294C518.3 295 545.7 271 573 281C600.3 291 627.7 335 654.8 345C682 355 709 331 736.2 308C763.3 285 790.7 263 818 268C845.3 273 872.7 305 886.3 321L900 337L900 173L886.3 165C872.7 157 845.3 141 818 140C790.7 139 763.3 153 736.2 166C709 179 682 191 654.8 181C627.7 171 600.3 139 573 138C545.7 137 518.3 167 491 180C463.7 193 436.3 189 409 175C381.7 161 354.3 137 327 139C299.7 141 272.3 169 245.2 174C218 179 191 161 163.8 147C136.7 133 109.3 123 82 126C54.7 129 27.3 145 13.7 153L0 161Z" fill="#cb35b9"></path><path d="M0 463L13.7 459C27.3 455 54.7 447 82 444C109.3 441 136.7 443 163.8 442C191 441 218 437 245.2 433C272.3 429 299.7 425 327 428C354.3 431 381.7 441 409 450C436.3 459 463.7 467 491 463C518.3 459 545.7 443 573 446C600.3 449 627.7 471 654.8 473C682 475 709 457 736.2 450C763.3 443 790.7 447 818 456C845.3 465 872.7 479 886.3 486L900 493L900 335L886.3 319C872.7 303 845.3 271 818 266C790.7 261 763.3 283 736.2 306C709 329 682 353 654.8 343C627.7 333 600.3 289 573 279C545.7 269 518.3 293 491 292C463.7 291 436.3 265 409 245C381.7 225 354.3 211 327 217C299.7 223 272.3 249 245.2 256C218 263 191 251 163.8 239C136.7 227 109.3 215 82 229C54.7 243 27.3 283 13.7 303L0 323Z" fill="#e93fd5"></path><path d="M0 517L13.7 516C27.3 515 54.7 513 82 510C109.3 507 136.7 503 163.8 512C191 521 218 543 245.2 545C272.3 547 299.7 529 327 521C354.3 513 381.7 515 409 517C436.3 519 463.7 521 491 527C518.3 533 545.7 543 573 550C600.3 557 627.7 561 654.8 553C682 545 709 525 736.2 516C763.3 507 790.7 509 818 518C845.3 527 872.7 543 886.3 551L900 559L900 491L886.3 484C872.7 477 845.3 463 818 454C790.7 445 763.3 441 736.2 448C709 455 682 473 654.8 471C627.7 469 600.3 447 573 444C545.7 441 518.3 457 491 461C463.7 465 436.3 457 409 448C381.7 439 354.3 429 327 426C299.7 423 272.3 427 245.2 431C218 435 191 439 163.8 440C136.7 441 109.3 439 82 442C54.7 445 27.3 453 13.7 457L0 461Z" fill="#ed67dd"></path><path d="M0 601L13.7 601C27.3 601 54.7 601 82 601C109.3 601 136.7 601 163.8 601C191 601 218 601 245.2 601C272.3 601 299.7 601 327 601C354.3 601 381.7 601 409 601C436.3 601 463.7 601 491 601C518.3 601 545.7 601 573 601C600.3 601 627.7 601 654.8 601C682 601 709 601 736.2 601C763.3 601 790.7 601 818 601C845.3 601 872.7 601 886.3 601L900 601L900 557L886.3 549C872.7 541 845.3 525 818 516C790.7 507 763.3 505 736.2 514C709 523 682 543 654.8 551C627.7 559 600.3 555 573 548C545.7 541 518.3 531 491 525C463.7 519 436.3 517 409 515C381.7 513 354.3 511 327 519C299.7 527 272.3 545 245.2 543C218 541 191 519 163.8 510C136.7 501 109.3 505 82 508C54.7 511 27.3 513 13.7 514L0 515Z" fill="#f186e5"></path></svg>