<svg id="visual" viewBox="0 0 900 600" width="900" height="600" xmlns="http://www.w3.org/2000/svg" xmlns:xlink="http://www.w3.org/1999/xlink" version="1.1"><path d="M0 85L13.7 82C27.3 79 54.7 73 82 80C109.3 87 136.7 107 163.8 104C191 101 218 75 245.2 63C272.3 51 299.7 53 327 66C354.3 79 381.7 103 409 101C436.3 99 463.7 71 491 69C518.3 67 545.7 91 573 101C600.3 111 627.7 107 654.8 104C682 101 709 99 736.2 92C763.3 85 790.7 73 818 71C845.3 69 872.7 77 886.3 81L900 85L900 0L886.3 0C872.7 0 845.3 0 818 0C790.7 0 763.3 0 736.2 0C709 0 682 0 654.8 0C627.7 0 600.3 0 573 0C545.7 0 518.3 0 491 0C463.7 0 436.3 0 409 0C381.7 0 354.3 0 327 0C299.7 0 272.3 0 245.2 0C218 0 191 0 163.8 0C136.7 0 109.3 0 82 0C54.7 0 27.3 0 13.7 0L0 0Z" fill="#a52b95"></path><path d="M0 337L13.7 343C27.3 349 54.7 361 82 357C109.3 353 136.7 333 163.8 324C191 315 218 317 245.2 318C272.3 319 299.7 319 327 305C354.3 291 381.7 263 409 240C436.3 217 463.7 199 491 209C518.3 219 545.7 257 573 283C600.3 309 627.7 323 654.8 318C682 313 709 289 736.2 275C763.3 261 790.7 257 818 244C845.3 231 872.7 209 886.3 198L900 187L900 83L886.3 79C872.7 75 845.3 67 818 69C790.7 71 763.3 83 736.2 90C709 97 682 99 654.8 102C627.7 105 600.3 109 573 99C545.7 89 518.3 65 491 67C463.7 69 436.3 97 409 99C381.7 101 354.3 77 327 64C299.7 51 272.3 49 245.2 61C218 73 191 99 163.8 102C136.7 105 109.3 85 82 78C54.7 71 27.3 77 13.7 80L0 83Z" fill="#901a81"></path><path d="M0 433L13.7 443C27.3 453 54.7 473 82 475C109.3 477 136.7 461 163.8 447C191 433 218 421 245.2 414C272.3 407 299.7 405 327 421C354.3 437 381.7 471 409 461C436.3 451 463.7 397 491 378C518.3 359 545.7 375 573 386C600.3 397 627.7 403 654.8 400C682 397 709 385 736.2 386C763.3 387 790.7 401 818 413C845.3 425 872.7 435 886.3 440L900 445L900 185L886.3 196C872.7 207 845.3 229 818 242C790.7 255 763.3 259 736.2 273C709 287 682 311 654.8 316C627.7 321 600.3 307 573 281C545.7 255 518.3 217 491 207C463.7 197 436.3 215 409 238C381.7 261 354.3 289 327 303C299.7 317 272.3 317 245.2 316C218 315 191 313 163.8 322C136.7 331 109.3 351 82 355C54.7 359 27.3 347 13.7 341L0 335Z" fill="#7c036e"></path><path d="M0 493L13.7 501C27.3 509 54.7 525 82 523C109.3 521 136.7 501 163.8 492C191 483 218 485 245.2 486C272.3 487 299.7 487 327 498C354.3 509 381.7 531 409 523C436.3 515 463.7 477 491 466C518.3 455 545.7 471 573 477C600.3 483 627.7 479 654.8 472C682 465 709 455 736.2 462C763.3 469 790.7 493 818 504C845.3 515 872.7 513 886.3 512L900 511L900 443L886.3 438C872.7 433 845.3 423 818 411C790.7 399 763.3 385 736.2 384C709 383 682 395 654.8 398C627.7 401 600.3 395 573 384C545.7 373 518.3 357 491 376C463.7 395 436.3 449 409 459C381.7 469 354.3 435 327 419C299.7 403 272.3 405 245.2 412C218 419 191 431 163.8 445C136.7 459 109.3 475 82 473C54.7 471 27.3 451 13.7 441L0 431Z" fill="#6b0860"></path><path d="M0 601L13.7 601C27.3 601 54.7 601 82 601C109.3 601 136.7 601 163.8 601C191 601 218 601 245.2 601C272.3 601 299.7 601 327 601C354.3 601 381.7 601 409 601C436.3 601 463.7 601 491 601C518.3 601 545.7 601 573 601C600.3 601 627.7 601 654.8 601C682 601 709 601 736.2 601C763.3 601 790.7 601 818 601C845.3 601 872.7 601 886.3 601L900 601L900 509L886.3 510C872.7 511 845.3 513 818 502C790.7 491 763.3 467 736.2 460C709 453 682 463 654.8 470C627.7 477 600.3 481 573 475C545.7 469 518.3 453 491 464C463.7 475 436.3 513 409 521C381.7 529 354.3 507 327 496C299.7 485 272.3 485 245.2 484C218 483 191 481 163.8 490C136.7 499 109.3 519 82 521C54.7 523 27.3 507 13.7 499L0 491Z" fill="#5a0a52"></path></svg>